<?xml version="1.0" encoding="utf-8"?>
<!-- Generator: Adobe Illustrator 16.0.0, SVG Export Plug-In . SVG Version: 6.00 Build 0)  -->
<!DOCTYPE svg PUBLIC "-//W3C//DTD SVG 1.1//EN" "http://www.w3.org/Graphics/SVG/1.1/DTD/svg11.dtd">
<svg version="1.1" id="Layer_1" xmlns="http://www.w3.org/2000/svg" xmlns:xlink="http://www.w3.org/1999/xlink" x="0px" y="0px"
	 width="595.279px" height="841.891px" viewBox="0 0 595.279 841.891" enable-background="new 0 0 595.279 841.891"
	 xml:space="preserve">
<path fill="#F3BB00" d="M594.453,222.519c-0.827-3.308-1.652-5.788-3.308-8.268L429.925,34.013v188.506H594.453z"/>
<path fill="#F3BB00" d="M152.204,693.782c-25.37,0-46.009-20.641-46.009-46.011V482.097c0-25.369,20.64-46.009,46.009-46.009
	h291.078c25.369,0,46.009,20.64,46.009,46.009v165.675c0,25.37-20.64,46.011-46.01,46.011H152.204z M402.666,649.774l-50.53-50.534
	l-26.641,26.639c-7.412,7.414-17.27,11.498-27.754,11.498c-10.48,0-20.335-4.084-27.749-11.498l-26.64-26.64l-50.535,50.535H402.666
	z M445.284,630.162V506.089l-62.033,62.034L445.284,630.162z M150.201,630.157l62.034-62.035l-62.034-62.035V630.157z
	 M297.742,591.396l111.305-111.301H186.445L297.742,591.396z"/>
<path fill="#F3BB00" d="M443.282,446.089H152.204c-19.855,0-36.009,16.151-36.009,36.008v165.675
	c0,19.855,16.152,36.01,36.009,36.01h291.077c19.857,0,36.009-16.153,36.009-36.01V482.097
	C479.29,462.24,463.139,446.089,443.282,446.089z M455.285,482.097v165.675c0,1.895-0.532,3.622-1.318,5.217l-84.858-84.865
	l86.153-86.154C455.261,482.016,455.285,482.05,455.285,482.097z M140.201,647.771V482.097c0-0.047,0.024-0.08,0.024-0.129
	l86.153,86.154l-84.864,84.865C140.735,651.394,140.201,649.665,140.201,647.771z M301.447,601.835c-1.98,1.979-5.429,1.979-7.41,0
	l-131.735-131.74H433.19L301.447,601.835z M243.352,585.097l33.711,33.711c5.527,5.527,12.87,8.568,20.678,8.568
	c7.81,0,15.156-3.041,20.683-8.568l33.712-33.711l74.672,74.679H168.674L243.352,585.097z"/>
<path fill="#F3BB00" d="M0,17.539v806.812c0,9.647,7.44,17.54,16.535,17.54h562.209c9.096,0,16.535-7.893,16.535-17.54v-578.8
	h-181.89c-9.095,0-16.535-7.893-16.535-17.54V0H16.534C7.441,0,0,7.894,0,17.539z M49.607,359.557h496.067v429.715H49.607V359.557z
	 M45.091,68.771h85.402v25.31H77.029v18.84h49.595v24.178H77.029v23.369h55.012v26.846h-86.95V68.771z M148.854,68.771h41.91
	l16.163,72.128l16.047-72.128h41.885v118.542h-26.099V96.91l-20.11,90.403h-23.624L174.953,96.91v90.403h-26.099V68.771z
	 M285.188,68.771h31.868v89.352h49.736v29.191h-81.604V68.771z"/>
</svg>
