<?xml version="1.0" encoding="utf-8"?>
<!-- Generator: Adobe Illustrator 16.0.0, SVG Export Plug-In . SVG Version: 6.00 Build 0)  -->
<!DOCTYPE svg PUBLIC "-//W3C//DTD SVG 1.1//EN" "http://www.w3.org/Graphics/SVG/1.1/DTD/svg11.dtd">
<svg version="1.1" id="Layer_1" xmlns="http://www.w3.org/2000/svg" xmlns:xlink="http://www.w3.org/1999/xlink" x="0px" y="0px"
	 width="595.279px" height="841.891px" viewBox="0 0 595.279 841.891" enable-background="new 0 0 595.279 841.891"
	 xml:space="preserve">
<path fill="#F3BB00" d="M594.453,222.519c-0.827-3.308-1.651-5.788-3.308-8.268L429.926,34.013v188.506H594.453z"/>
<path fill="#F3BB00" d="M152.204,693.782c-25.37,0-46.009-20.642-46.009-46.011V482.097c0-25.369,20.64-46.009,46.009-46.009
	h291.078c25.369,0,46.009,20.64,46.009,46.009v165.675c0,25.37-20.64,46.012-46.01,46.012L152.204,693.782L152.204,693.782z
	 M402.666,649.774l-50.529-50.534l-26.642,26.639c-7.412,7.414-17.27,11.498-27.754,11.498c-10.479,0-20.335-4.084-27.749-11.498
	l-26.64-26.64l-50.535,50.534L402.666,649.774L402.666,649.774z M445.284,630.162V506.089l-62.032,62.034L445.284,630.162z
	 M150.201,630.157l62.034-62.035l-62.034-62.035V630.157z M297.742,591.396l111.306-111.302H186.445L297.742,591.396z"/>
<path fill="#F3BB00" d="M443.282,446.089H152.204c-19.854,0-36.009,16.151-36.009,36.008v165.675
	c0,19.855,16.152,36.011,36.009,36.011h291.077c19.857,0,36.009-16.153,36.009-36.011V482.097
	C479.29,462.24,463.139,446.089,443.282,446.089z M455.285,482.097v165.675c0,1.896-0.531,3.622-1.317,5.218l-84.858-84.865
	l86.153-86.154C455.261,482.016,455.285,482.05,455.285,482.097z M140.201,647.771V482.097c0-0.047,0.024-0.08,0.024-0.129
	l86.152,86.154l-84.863,84.865C140.735,651.394,140.201,649.665,140.201,647.771z M301.447,601.835c-1.979,1.979-5.429,1.979-7.41,0
	l-131.735-131.74H433.19L301.447,601.835z M243.352,585.097l33.711,33.711c5.526,5.527,12.87,8.568,20.678,8.568
	c7.811,0,15.156-3.041,20.684-8.568l33.712-33.711l74.672,74.68H168.674L243.352,585.097z"/>
<path fill="#F3BB00" d="M0,17.539v806.812c0,9.647,7.44,17.54,16.535,17.54h562.209c9.097,0,16.535-7.893,16.535-17.54v-578.8
	h-181.89c-9.096,0-16.535-7.893-16.535-17.54V0H16.534C7.441,0,0,7.894,0,17.539z M49.607,359.557h496.067v429.714H49.607V359.557z
	 M325.094,143.101v-24.253h47.186v49.7c-9.033,7.263-17.021,12.206-23.963,14.83c-6.943,2.624-15.178,3.936-24.705,3.936
	c-11.729,0-21.289-2.358-28.681-7.077c-7.393-4.718-13.122-11.741-17.188-21.072c-4.068-9.33-6.101-20.039-6.101-32.126
	c0-12.723,2.225-23.789,6.673-33.199c4.449-9.409,10.963-16.552,19.547-21.43c6.695-3.764,15.707-5.646,27.031-5.646
	c10.92,0,19.086,1.167,24.502,3.499c5.414,2.333,9.908,5.951,13.48,10.854c3.572,4.904,6.258,11.121,8.055,18.647l-29.455,6.203
	c-1.215-4.4-3.27-7.766-6.168-10.099c-2.898-2.332-6.596-3.499-11.088-3.499c-6.697,0-12.033,2.744-16.01,8.23
	s-5.965,14.168-5.965,26.042c0,12.617,2.01,21.629,6.033,27.037c4.02,5.407,9.627,8.111,16.816,8.111
	c3.416,0,6.674-0.583,9.775-1.75c3.1-1.166,6.648-3.153,10.648-5.964v-10.974H325.094z M45.091,68.75h40.157l15.486,70.931
	L116.11,68.75h40.133v116.575h-25.007V96.423l-19.269,88.902H89.331L70.098,96.423v88.902H45.091V68.75z M170.398,146.758
	l29.052-2.147c0.629,5.566,1.909,9.808,3.842,12.723c3.145,4.719,7.639,7.077,13.481,7.077c4.358,0,7.718-1.205,10.077-3.618
	c2.359-2.412,3.539-5.208,3.539-8.389c0-3.022-1.124-5.726-3.371-8.111c-2.248-2.386-7.46-4.638-15.638-6.759
	c-13.392-3.551-22.941-8.27-28.647-14.154c-5.752-5.884-8.628-13.385-8.628-22.504c0-5.99,1.471-11.649,4.415-16.978
	c2.943-5.328,7.37-9.515,13.279-12.564c5.909-3.048,14.009-4.572,24.3-4.572c12.627,0,22.254,2.771,28.883,8.31
	c6.628,5.541,10.571,14.354,11.83,26.44l-28.782,1.988c-0.765-5.248-2.371-9.065-4.819-11.451c-2.45-2.386-5.831-3.579-10.145-3.579
	c-3.55,0-6.224,0.889-8.021,2.664c-1.798,1.777-2.696,3.936-2.696,6.481c0,1.856,0.741,3.526,2.224,5.01
	c1.438,1.538,4.854,2.969,10.246,4.294c13.346,3.393,22.906,6.826,28.681,10.298c5.774,3.473,9.976,7.78,12.605,12.922
	c2.629,5.143,3.943,10.894,3.943,17.255c0,7.475-1.753,14.367-5.258,20.675c-3.505,6.31-8.404,11.093-14.694,14.354
	c-6.292,3.26-14.223,4.89-23.794,4.89c-16.808,0-28.445-3.817-34.917-11.451C174.915,168.229,171.252,158.527,170.398,146.758z"/>
</svg>
